<mxfile host="app.diagrams.net" modified="2023-03-28T21:58:46.227Z" agent="Mozilla/5.0 (Windows NT 10.0; Win64; x64) AppleWebKit/537.36 (KHTML, like Gecko) Chrome/111.0.0.0 Safari/537.36" etag="o8ckyWVQMosyR-jIiBra" version="21.1.1" type="github">
  <diagram id="prtHgNgQTEPvFCAcTncT" name="Page-1">
    <mxGraphModel dx="2261" dy="764" grid="1" gridSize="10" guides="1" tooltips="1" connect="1" arrows="1" fold="1" page="1" pageScale="1" pageWidth="827" pageHeight="1169" math="0" shadow="0">
      <root>
        <mxCell id="0" />
        <mxCell id="1" parent="0" />
        <mxCell id="dNxyNK7c78bLwvsdeMH5-11" value="Liveperson on&amp;nbsp;Genesys Widgets&lt;span style=&quot;background-color: initial;&quot;&gt;&amp;nbsp;Diagram&lt;/span&gt;" style="swimlane;html=1;startSize=20;horizontal=1;containerType=tree;glass=0;" parent="1" vertex="1">
          <mxGeometry x="-50" y="70" width="710" height="490" as="geometry" />
        </mxCell>
        <mxCell id="5qLdxWJnu1Q0lXafsw6Y-2" value="UI Plugins" style="rounded=0;whiteSpace=wrap;html=1;" vertex="1" parent="dNxyNK7c78bLwvsdeMH5-11">
          <mxGeometry x="160" y="40" width="120" height="60" as="geometry" />
        </mxCell>
        <mxCell id="5qLdxWJnu1Q0lXafsw6Y-4" value="Service Plugins" style="rounded=0;whiteSpace=wrap;html=1;" vertex="1" parent="dNxyNK7c78bLwvsdeMH5-11">
          <mxGeometry x="295" y="40" width="120" height="60" as="geometry" />
        </mxCell>
        <mxCell id="5qLdxWJnu1Q0lXafsw6Y-5" value="Bridge Plugins" style="rounded=0;whiteSpace=wrap;html=1;" vertex="1" parent="dNxyNK7c78bLwvsdeMH5-11">
          <mxGeometry x="430" y="40" width="120" height="60" as="geometry" />
        </mxCell>
        <mxCell id="5qLdxWJnu1Q0lXafsw6Y-6" value="Widgets - Core" style="rounded=0;whiteSpace=wrap;html=1;" vertex="1" parent="dNxyNK7c78bLwvsdeMH5-11">
          <mxGeometry x="295" y="120" width="120" height="60" as="geometry" />
        </mxCell>
        <mxCell id="5qLdxWJnu1Q0lXafsw6Y-7" value="CX Bus" style="rounded=0;whiteSpace=wrap;html=1;" vertex="1" parent="dNxyNK7c78bLwvsdeMH5-11">
          <mxGeometry x="295" y="200" width="120" height="60" as="geometry" />
        </mxCell>
        <mxCell id="5qLdxWJnu1Q0lXafsw6Y-8" value="Liveperson API Connector" style="rounded=0;whiteSpace=wrap;html=1;" vertex="1" parent="dNxyNK7c78bLwvsdeMH5-11">
          <mxGeometry x="295" y="280" width="120" height="60" as="geometry" />
        </mxCell>
        <mxCell id="5qLdxWJnu1Q0lXafsw6Y-9" value="Webhooks events" style="text;html=1;strokeColor=none;fillColor=none;align=center;verticalAlign=middle;whiteSpace=wrap;rounded=0;" vertex="1" parent="dNxyNK7c78bLwvsdeMH5-11">
          <mxGeometry x="480" y="250" width="60" height="30" as="geometry" />
        </mxCell>
        <mxCell id="5qLdxWJnu1Q0lXafsw6Y-11" value="" style="endArrow=classic;startArrow=classic;html=1;rounded=0;exitX=1;exitY=0.5;exitDx=0;exitDy=0;entryX=0.5;entryY=0;entryDx=0;entryDy=0;" edge="1" parent="dNxyNK7c78bLwvsdeMH5-11" source="5qLdxWJnu1Q0lXafsw6Y-7" target="5qLdxWJnu1Q0lXafsw6Y-9">
          <mxGeometry width="50" height="50" relative="1" as="geometry">
            <mxPoint x="440" y="330" as="sourcePoint" />
            <mxPoint x="490" y="280" as="targetPoint" />
          </mxGeometry>
        </mxCell>
        <mxCell id="5qLdxWJnu1Q0lXafsw6Y-10" value="" style="endArrow=classic;startArrow=classic;html=1;rounded=0;exitX=1;exitY=0.5;exitDx=0;exitDy=0;entryX=0.5;entryY=1;entryDx=0;entryDy=0;" edge="1" parent="dNxyNK7c78bLwvsdeMH5-11" source="5qLdxWJnu1Q0lXafsw6Y-8" target="5qLdxWJnu1Q0lXafsw6Y-9">
          <mxGeometry width="50" height="50" relative="1" as="geometry">
            <mxPoint x="440" y="330" as="sourcePoint" />
            <mxPoint x="490" y="280" as="targetPoint" />
          </mxGeometry>
        </mxCell>
        <mxCell id="5qLdxWJnu1Q0lXafsw6Y-12" value="Live Engage" style="rounded=0;whiteSpace=wrap;html=1;" vertex="1" parent="dNxyNK7c78bLwvsdeMH5-11">
          <mxGeometry x="295" y="380" width="120" height="60" as="geometry" />
        </mxCell>
        <mxCell id="5qLdxWJnu1Q0lXafsw6Y-13" value="" style="endArrow=classic;startArrow=classic;html=1;rounded=0;exitX=0.5;exitY=0;exitDx=0;exitDy=0;entryX=0.5;entryY=1;entryDx=0;entryDy=0;" edge="1" parent="dNxyNK7c78bLwvsdeMH5-11" source="5qLdxWJnu1Q0lXafsw6Y-12" target="5qLdxWJnu1Q0lXafsw6Y-8">
          <mxGeometry width="50" height="50" relative="1" as="geometry">
            <mxPoint x="440" y="330" as="sourcePoint" />
            <mxPoint x="490" y="280" as="targetPoint" />
          </mxGeometry>
        </mxCell>
      </root>
    </mxGraphModel>
  </diagram>
</mxfile>
